Gait_normal_06_analogdata.mot
version=1
nRows=54
nColumns=19
inDegrees=yes
endheader
time	1_ground_force_vx	1_ground_force_vy	1_ground_force_vz	1_ground_force_px	1_ground_force_py	1_ground_force_pz	1_ground_torque_x	1_ground_torque_y	1_ground_torque_z	2_ground_force_vx	2_ground_force_vy	2_ground_force_vz	2_ground_force_px	2_ground_force_py	2_ground_force_pz	2_ground_torque_x	2_ground_torque_y	2_ground_torque_z
0.430000	-18.589890	522.617004	-21.884017	-0.145253	0.000000	-0.377656	-0.014650	0.411860	-0.017246	0.000000	0.000000	-0.000000	-0.200000	0.000000	0.302000	0.000000	0.000000	-0.000000
0.431000	-18.055375	521.217346	-21.441672	-0.146380	0.000000	-0.377325	-0.009176	0.264899	-0.010897	0.000000	0.000000	-0.000000	-0.200000	0.000000	0.302000	0.000000	0.000000	-0.000000
0.432000	-18.055375	513.519043	-21.087794	-0.144517	0.000000	-0.379997	-0.005590	0.159000	-0.006529	0.000000	0.000000	-0.000000	-0.200000	0.000000	0.302000	0.000000	0.000000	-0.000000
0.433000	-17.253602	516.668335	-20.114632	-0.145260	0.000000	-0.376062	-0.014515	0.434667	-0.016922	0.000000	0.000000	-0.000000	-0.200000	0.000000	0.302000	0.000000	0.000000	-0.000000
0.434000	-17.075430	516.668335	-21.707080	-0.145357	0.000000	-0.375240	-0.002589	0.078346	-0.003292	0.000000	0.000000	-0.000000	-0.200000	0.000000	0.302000	0.000000	0.000000	-0.000000
0.435000	-17.966288	519.117798	-21.353202	-0.145180	0.000000	-0.374188	-0.008049	0.232565	-0.009566	0.000000	0.000000	-0.000000	-0.200000	0.000000	0.302000	0.000000	0.000000	-0.000000
0.436000	-17.609946	518.767883	-21.530141	-0.145927	0.000000	-0.373965	-0.004069	0.119879	-0.004975	0.000000	0.000000	-0.000000	-0.200000	0.000000	0.302000	0.000000	0.000000	-0.000000
0.437000	-17.609946	515.618591	-20.733918	-0.145169	0.000000	-0.372816	-0.005081	0.148773	-0.005982	0.000000	0.000000	-0.000000	-0.200000	0.000000	0.302000	0.000000	0.000000	-0.000000
0.438000	-16.451831	507.920288	-20.026164	-0.144333	0.000000	-0.374828	-0.007193	0.222066	-0.008756	0.000000	0.000000	-0.000000	-0.200000	0.000000	0.302000	0.000000	0.000000	-0.000000
0.439000	-15.650057	514.918701	-21.087794	-0.145222	0.000000	-0.372569	-0.010124	0.333103	-0.013642	0.000000	0.000000	-0.000000	-0.200000	0.000000	0.302000	0.000000	0.000000	-0.000000
0.440000	-17.253602	517.018250	-21.087794	-0.145116	0.000000	-0.371101	-0.000523	0.015679	-0.000640	0.000000	0.000000	-0.000000	-0.200000	0.000000	0.302000	0.000000	0.000000	-0.000000
0.441000	-17.431775	517.018250	-20.645448	-0.145884	0.000000	-0.370932	-0.004703	0.139489	-0.005570	0.000000	0.000000	-0.000000	-0.200000	0.000000	0.302000	0.000000	0.000000	-0.000000
0.442000	-17.164517	515.618591	-20.822386	-0.145316	0.000000	-0.369430	-0.002933	0.088108	-0.003558	0.000000	0.000000	-0.000000	-0.200000	0.000000	0.302000	0.000000	0.000000	-0.000000
0.443000	-16.897259	519.467712	-20.645447	-0.145635	0.000000	-0.368840	-0.009790	0.300985	-0.011962	0.000000	0.000000	-0.000000	-0.200000	0.000000	0.302000	0.000000	0.000000	-0.000000
0.444000	-15.828230	513.169128	-18.699126	-0.145251	0.000000	-0.368882	-0.010543	0.341815	-0.012455	0.000000	0.000000	-0.000000	-0.200000	0.000000	0.302000	0.000000	0.000000	-0.000000
0.445000	-16.362744	515.618591	-20.999325	-0.145304	0.000000	-0.367837	-0.007446	0.234640	-0.009556	0.000000	0.000000	-0.000000	-0.200000	0.000000	0.302000	0.000000	0.000000	-0.000000
0.446000	-17.520859	515.268677	-21.176263	-0.144645	0.000000	-0.368494	-0.000936	0.027541	-0.001132	0.000000	0.000000	-0.000000	-0.200000	0.000000	0.302000	0.000000	0.000000	-0.000000
0.447000	-17.253602	513.169128	-21.176263	-0.144556	0.000000	-0.366721	-0.003134	0.093214	-0.003847	0.000000	0.000000	-0.000000	-0.200000	0.000000	0.302000	0.000000	0.000000	-0.000000
0.448000	-16.897260	517.018250	-20.114632	-0.144869	0.000000	-0.366427	-0.015883	0.485975	-0.018907	0.000000	0.000000	-0.000000	-0.200000	0.000000	0.302000	0.000000	0.000000	-0.000000
0.449000	-16.630002	511.769409	-20.910855	-0.144818	0.000000	-0.365929	-0.009107	0.280260	-0.011451	0.000000	0.000000	-0.000000	-0.200000	0.000000	0.302000	0.000000	0.000000	-0.000000
0.450000	-14.670114	510.369720	-20.733918	-0.145025	0.000000	-0.365658	-0.007993	0.278077	-0.011297	0.000000	0.000000	-0.000000	-0.200000	0.000000	0.302000	0.000000	0.000000	-0.000000
0.451000	-17.431775	513.519043	-20.645448	-0.145234	0.000000	-0.364889	-0.003417	0.100657	-0.004047	0.000000	0.000000	-0.000000	-0.200000	0.000000	0.302000	0.000000	0.000000	-0.000000
0.452000	-17.609946	508.970032	-20.556979	-0.144970	0.000000	-0.365460	0.001163	-0.033600	0.001357	0.000000	0.000000	-0.000000	-0.200000	0.000000	0.302000	0.000000	0.000000	-0.000000
0.453000	-17.075431	514.568787	-19.849225	-0.144975	0.000000	-0.363700	-0.010396	0.313298	-0.012085	0.000000	0.000000	-0.000000	-0.200000	0.000000	0.302000	0.000000	0.000000	-0.000000
0.454000	-17.075430	510.019806	-21.264733	-0.146493	0.000000	-0.363544	-0.008426	0.251681	-0.010494	0.000000	0.000000	-0.000000	-0.200000	0.000000	0.302000	0.000000	0.000000	-0.000000
0.455000	-17.966288	511.069580	-19.760756	-0.145039	0.000000	-0.363318	-0.005536	0.157469	-0.006089	0.000000	0.000000	-0.000000	-0.200000	0.000000	0.302000	0.000000	0.000000	-0.000000
0.456000	-16.719088	510.719666	-19.849225	-0.145422	0.000000	-0.361660	-0.008737	0.266901	-0.010373	0.000000	0.000000	-0.000000	-0.200000	0.000000	0.302000	0.000000	0.000000	-0.000000
0.457000	-17.253602	510.019806	-19.937695	-0.145004	0.000000	-0.360563	-0.002422	0.071605	-0.002799	0.000000	0.000000	-0.000000	-0.200000	0.000000	0.302000	0.000000	0.000000	-0.000000
0.458000	-17.342689	508.970032	-18.433717	-0.144332	0.000000	-0.360493	0.004853	-0.142435	0.005159	0.000000	0.000000	-0.000000	-0.200000	0.000000	0.302000	0.000000	0.000000	-0.000000
0.459000	-17.164517	507.570343	-20.468510	-0.144524	0.000000	-0.360130	-0.001536	0.045422	-0.001832	0.000000	0.000000	-0.000000	-0.200000	0.000000	0.302000	0.000000	0.000000	-0.000000
0.460000	-17.966289	506.870514	-19.141471	-0.145163	0.000000	-0.356597	-0.004532	0.127845	-0.004828	0.000000	0.000000	-0.000000	-0.200000	0.000000	0.302000	0.000000	0.000000	-0.000000
0.461000	-17.164517	511.069580	-19.053002	-0.145190	0.000000	-0.357474	-0.001729	0.051478	-0.001919	0.000000	0.000000	-0.000000	-0.200000	0.000000	0.302000	0.000000	0.000000	-0.000000
0.462000	-18.233546	510.019806	-19.495349	-0.145019	0.000000	-0.357220	0.004516	-0.126309	0.004828	0.000000	0.000000	-0.000000	-0.200000	0.000000	0.302000	0.000000	0.000000	-0.000000
0.463000	-17.609946	510.719666	-18.876063	-0.144966	0.000000	-0.356588	0.011906	-0.345287	0.012762	0.000000	0.000000	-0.000000	-0.200000	0.000000	0.302000	0.000000	0.000000	-0.000000
0.464000	-16.808173	506.520599	-18.610655	-0.143114	0.000000	-0.357443	-0.000068	0.002053	-0.000075	0.000000	0.000000	-0.000000	-0.200000	0.000000	0.302000	0.000000	0.000000	-0.000000
0.465000	-18.411717	507.570343	-18.522187	-0.144962	0.000000	-0.354518	0.001244	-0.034307	0.001252	0.000000	0.000000	-0.000000	-0.200000	0.000000	0.302000	0.000000	0.000000	-0.000000
0.466000	-17.253602	517.718079	-18.433717	-0.145681	0.000000	-0.353989	-0.002491	0.074755	-0.002662	0.000000	0.000000	-0.000000	-0.200000	0.000000	0.302000	0.000000	0.000000	-0.000000
0.467000	-17.431775	509.669891	-18.787595	-0.144543	0.000000	-0.353664	0.000884	-0.025832	0.000952	0.000000	0.000000	-0.000000	-0.200000	0.000000	0.302000	0.000000	0.000000	-0.000000
0.468000	-17.520860	511.069580	-18.787595	-0.144347	0.000000	-0.353418	0.005510	-0.160735	0.005909	0.000000	0.000000	-0.000000	-0.200000	0.000000	0.302000	0.000000	0.000000	-0.000000
0.469000	-17.788117	508.970032	-18.699126	-0.143290	0.000000	-0.353335	0.022251	-0.636654	0.023390	0.000000	0.000000	-0.000000	-0.200000	0.000000	0.302000	0.000000	0.000000	-0.000000
0.470000	-17.788118	506.520599	-17.637494	-0.143628	0.000000	-0.354535	0.004385	-0.124869	0.004348	0.000000	0.000000	-0.000000	-0.200000	0.000000	0.302000	0.000000	0.000000	-0.000000
0.471000	-17.253602	512.469238	-17.902901	-0.144413	0.000000	-0.351317	-0.001760	0.052286	-0.001827	0.000000	0.000000	-0.000000	-0.200000	0.000000	0.302000	0.000000	0.000000	-0.000000
0.472000	-17.609946	511.419495	-19.849225	-0.144384	0.000000	-0.351230	0.004452	-0.129287	0.005018	0.000000	0.000000	-0.000000	-0.200000	0.000000	0.302000	0.000000	0.000000	-0.000000
0.473000	-18.411717	508.970032	-18.610656	-0.144192	0.000000	-0.350841	0.006919	-0.191270	0.006994	0.000000	0.000000	-0.000000	-0.200000	0.000000	0.302000	0.000000	0.000000	-0.000000
0.474000	-17.788118	509.669891	-17.725964	-0.143406	0.000000	-0.350502	0.006078	-0.174136	0.006056	0.000000	0.000000	-0.000000	-0.200000	0.000000	0.302000	0.000000	0.000000	-0.000000
0.475000	-17.699031	507.570343	-17.637494	-0.141669	0.000000	-0.351697	0.010802	-0.309792	0.010765	0.000000	0.000000	-0.000000	-0.200000	0.000000	0.302000	0.000000	0.000000	-0.000000
0.476000	-17.877204	499.522125	-17.460557	-0.142915	0.000000	-0.349874	0.006429	-0.179626	0.006279	0.000000	0.000000	-0.000000	-0.200000	0.000000	0.302000	0.000000	0.000000	-0.000000
0.477000	-18.055375	508.970032	-18.433717	-0.144401	0.000000	-0.348412	0.004099	-0.115552	0.004185	-0.008639	0.000000	0.445724	-0.246907	0.000000	0.339333	-0.000098	-0.061346	0.005072
0.478000	-20.371606	506.870514	-18.345248	-0.143977	0.000000	-0.347862	0.017074	-0.424823	0.015376	0.000000	0.000000	-0.000000	-0.200000	0.000000	0.302000	0.000000	0.000000	-0.000000
0.479000	-18.946233	507.920288	-18.433717	-0.143428	0.000000	-0.347603	0.006714	-0.179986	0.006532	0.000000	0.000000	-0.000000	-0.200000	0.000000	0.302000	0.000000	0.000000	-0.000000
0.480000	-19.035320	506.870514	-17.195149	-0.144110	0.000000	-0.346878	0.011044	-0.294083	0.009977	0.000000	0.000000	-0.000000	-0.200000	0.000000	0.302000	0.000000	0.000000	-0.000000
0.481000	-19.035320	499.872070	-17.460557	-0.142371	0.000000	-0.349837	0.007241	-0.190157	0.006642	0.000000	0.000000	-0.000000	-0.200000	0.000000	0.302000	0.000000	0.000000	-0.000000
0.482000	-18.144460	503.721191	-14.983417	-0.143160	0.000000	-0.345645	-0.000367	0.010176	-0.000303	0.000000	0.000000	-0.000000	-0.200000	0.000000	0.302000	0.000000	0.000000	-0.000000
0.483000	-20.638864	505.120880	-17.902902	-0.143715	0.000000	-0.344841	0.020617	-0.504585	0.017884	0.000000	0.000000	-0.000000	-0.200000	0.000000	0.302000	0.000000	0.000000	-0.000000
